<svg width="50" height="50" viewBox="0 0 50 50" fill="none" xmlns="http://www.w3.org/2000/svg">
<rect width="50" height="50" rx="25" fill="#6443B2"/>
<path d="M39.6487 28.2974H37.5165V38.1422C37.5165 39.886 36.1135 41.2969 34.3617 41.2969H15.6314C13.8875 41.2969 12.4766 39.894 12.4766 38.1422V28.2974H10.3444C7.96641 28.2974 6.36526 25.3884 8.49749 23.2007L21.1165 10.3518C22.1866 9.2342 23.5896 8.70312 25.0005 8.70312C26.4114 8.70312 27.8144 9.2342 28.932 10.3518L31.7936 13.2609V10.6927C31.7936 9.57504 32.7131 8.70312 33.8307 8.70312H35.5269C36.597 8.70312 37.5165 9.57504 37.5165 10.6927V19.1344L41.4956 23.2086C43.62 25.3884 42.0743 28.2974 39.6487 28.2974Z" fill="#040404"/>
</svg>
