<svg width="18" height="18" viewBox="0 0 18 18" fill="none" xmlns="http://www.w3.org/2000/svg">
<path d="M7.53328 0.199951C3.49188 0.199951 0.199951 3.49188 0.199951 7.53328C0.199951 11.5747 3.49188 14.8666 7.53328 14.8666C9.29072 14.8666 10.9047 14.2425 12.1696 13.2066L16.5481 17.5851C16.6157 17.6555 16.6966 17.7117 16.7862 17.7504C16.8758 17.7891 16.9721 17.8095 17.0697 17.8105C17.1673 17.8115 17.2641 17.793 17.3544 17.7562C17.4447 17.7193 17.5268 17.6648 17.5958 17.5958C17.6648 17.5268 17.7193 17.4447 17.7562 17.3544C17.793 17.2641 17.8115 17.1673 17.8105 17.0697C17.8095 16.9721 17.7891 16.8758 17.7504 16.7862C17.7117 16.6966 17.6555 16.6157 17.5851 16.5481L13.2066 12.1696C14.2425 10.9047 14.8666 9.29072 14.8666 7.53328C14.8666 3.49188 11.5747 0.199951 7.53328 0.199951ZM7.53328 1.66662C10.782 1.66662 13.4 4.28453 13.4 7.53328C13.4 10.782 10.782 13.4 7.53328 13.4C4.28453 13.4 1.66662 10.782 1.66662 7.53328C1.66662 4.28453 4.28453 1.66662 7.53328 1.66662Z" fill="#3E3E3E"/>
</svg>
