<svg width="35" height="35" viewBox="0 0 35 35" fill="none" xmlns="http://www.w3.org/2000/svg">
<rect width="35" height="35" fill="#171323"/>
<path d="M9.89474 26V21.9861L21.6829 9.56667C21.8618 9.37778 22.0632 9.23611 22.2868 9.14167C22.5105 9.04722 22.7342 9 22.9579 9C23.1965 9 23.4239 9.04722 23.6401 9.14167C23.8564 9.23611 24.0465 9.37778 24.2105 9.56667L25.4632 10.8889C25.6421 11.062 25.7763 11.2627 25.8658 11.491C25.9553 11.7192 26 11.9593 26 12.2111C26 12.4472 25.9553 12.6833 25.8658 12.9194C25.7763 13.1556 25.6421 13.3681 25.4632 13.5569L13.6974 26H9.89474ZM11.6842 24.1111H12.9368L21.7276 14.8556L21.1013 14.1708L20.4526 13.5097L11.6842 22.7889V24.1111ZM21.1013 14.1708L20.4526 13.5097L21.7276 14.8556L21.1013 14.1708ZM18.8421 26C19.9456 26 20.9671 25.7088 21.9066 25.1264C22.8461 24.544 23.3158 23.7333 23.3158 22.6944C23.3158 22.1278 23.1741 21.6398 22.8908 21.2306C22.6075 20.8213 22.2272 20.4671 21.75 20.1681L20.4303 21.5611C20.7732 21.7185 21.0417 21.8917 21.2355 22.0806C21.4294 22.2694 21.5263 22.4741 21.5263 22.6944C21.5263 23.0565 21.2542 23.3831 20.7099 23.6743C20.1656 23.9655 19.543 24.1111 18.8421 24.1111C18.5886 24.1111 18.3761 24.2016 18.2046 24.3826C18.0331 24.5637 17.9474 24.788 17.9474 25.0556C17.9474 25.3231 18.0331 25.5475 18.2046 25.7285C18.3761 25.9095 18.5886 26 18.8421 26ZM10.4092 18.775L11.7513 17.3583C11.4531 17.2324 11.2182 17.1025 11.0467 16.9687C10.8752 16.835 10.7895 16.6972 10.7895 16.5556C10.7895 16.3667 10.9237 16.1778 11.1921 15.9889C11.4605 15.8 12.0272 15.5088 12.8921 15.1153C14.2044 14.5171 15.0768 13.9741 15.5092 13.4861C15.9417 12.9981 16.1579 12.4472 16.1579 11.8333C16.1579 10.9676 15.8298 10.2789 15.1737 9.76736C14.5175 9.25579 13.6526 9 12.5789 9C11.9079 9 11.3077 9.12593 10.7783 9.37778C10.2489 9.62963 9.84254 9.93657 9.55921 10.2986C9.39518 10.5032 9.32807 10.7315 9.35789 10.9833C9.38772 11.2352 9.49956 11.4398 9.69342 11.5972C9.88728 11.7704 10.1035 11.8412 10.3421 11.8097C10.5807 11.7782 10.782 11.6759 10.9461 11.5028C11.1548 11.2824 11.386 11.125 11.6395 11.0306C11.893 10.9361 12.2061 10.8889 12.5789 10.8889C13.1904 10.8889 13.6414 10.9833 13.9322 11.1722C14.223 11.3611 14.3684 11.5815 14.3684 11.8333C14.3684 12.0537 14.2379 12.2544 13.977 12.4354C13.716 12.6164 13.1158 12.9352 12.1763 13.3917C10.9833 13.9426 10.1557 14.4424 9.69342 14.891C9.23114 15.3396 9 15.8944 9 16.5556C9 17.0593 9.12675 17.4882 9.38026 17.8424C9.63377 18.1965 9.97675 18.5074 10.4092 18.775Z" fill="#6443B2"/>
</svg>
