<svg width="50" height="50" viewBox="0 0 50 50" fill="none" xmlns="http://www.w3.org/2000/svg">
<g clip-path="url(#clip0_8_134)">
<path d="M25 0C11.1933 0 0 11.1933 0 25C0 38.8066 11.1933 50 25 50C38.8066 50 50 38.8066 50 25C50 11.1933 38.8066 0 25 0ZM39.7396 19.1831C38.3182 22.3954 33.9703 32.5698 31.0691 39.2015C31.065 39.2046 30.309 39.2 30.3069 39.199L25.7315 28.422C23.9182 31.9785 21.909 35.6757 20.1908 39.1939C20.1806 39.2118 19.3596 39.202 19.3586 39.1908C16.732 33.0598 14.0087 26.9693 11.3683 20.843C10.757 19.3453 8.61279 16.9366 7.14527 16.9504C7.14527 16.7765 7.13708 16.3882 7.13504 16.1535L16.1795 16.1524L16.1724 16.9356C15.1105 16.9847 13.2752 17.6624 13.7509 18.8348C15.0256 21.5872 19.5391 32.2501 20.7591 34.957C21.6102 33.291 23.9872 28.8501 24.9662 26.9729C24.199 25.3985 21.6634 19.5202 20.9033 18.0399C20.3299 17.0747 18.891 16.9565 17.7831 16.9396C17.7831 16.6926 17.7959 16.5023 17.7913 16.1632L25.7417 16.1877V16.91C24.6655 16.9396 23.6465 17.3402 24.1084 18.3693C25.178 20.5893 25.8026 22.1698 26.7841 24.223C27.0977 23.6215 28.7049 20.3243 29.4711 18.5841C29.934 17.4271 29.2425 16.9939 27.3064 16.9417C27.332 16.7514 27.3151 16.3693 27.332 16.1872L34.1985 16.1939L34.2015 16.9105C32.9396 16.9596 31.6332 17.6317 30.9514 18.6752L27.645 25.5325C28.0077 26.4394 31.1867 33.5018 31.5212 34.2849L38.357 18.5064C37.8706 17.2292 36.3192 16.9437 35.7125 16.9299C35.7166 16.7263 35.7176 16.4159 35.7187 16.1565L42.8547 16.177L42.865 16.2128L42.8532 16.9258C41.2875 16.9734 40.3192 17.8107 39.7396 19.1831Z" fill="#6443B2"/>
</g>
<defs>
<clipPath id="clip0_8_134">
<rect width="50" height="50" fill="white"/>
</clipPath>
</defs>
</svg>
