<svg width="32" height="22" viewBox="0 0 32 22" fill="none" xmlns="http://www.w3.org/2000/svg">
<path d="M16 6.75C14.8728 6.75 13.7918 7.19777 12.9948 7.9948C12.1978 8.79183 11.75 9.87283 11.75 11C11.75 12.1272 12.1978 13.2082 12.9948 14.0052C13.7918 14.8022 14.8728 15.25 16 15.25C17.1272 15.25 18.2082 14.8022 19.0052 14.0052C19.8023 13.2082 20.25 12.1272 20.25 11C20.25 9.87283 19.8023 8.79183 19.0052 7.9948C18.2082 7.19777 17.1272 6.75 16 6.75ZM16 18.0833C14.1214 18.0833 12.3197 17.3371 10.9913 16.0087C9.66296 14.6803 8.91669 12.8786 8.91669 11C8.91669 9.12138 9.66296 7.31971 10.9913 5.99133C12.3197 4.66294 14.1214 3.91667 16 3.91667C17.8786 3.91667 19.6803 4.66294 21.0087 5.99133C22.3371 7.31971 23.0834 9.12138 23.0834 11C23.0834 12.8786 22.3371 14.6803 21.0087 16.0087C19.6803 17.3371 17.8786 18.0833 16 18.0833ZM16 0.375C8.91669 0.375 2.86752 4.78083 0.416687 11C2.86752 17.2192 8.91669 21.625 16 21.625C23.0834 21.625 29.1325 17.2192 31.5834 11C29.1325 4.78083 23.0834 0.375 16 0.375Z" fill="black" fill-opacity="0.37"/>
</svg>
