<svg width="34" height="34" viewBox="0 0 34 34" fill="none" xmlns="http://www.w3.org/2000/svg">
<path d="M11.4368 17.2748L5.96704 11.8051C3.81371 14.1525 2.99771 16.5042 2.98354 16.5523L2.83337 17L2.98212 17.4477C3.01329 17.5426 6.26312 26.9167 17.0765 26.9167C18.3926 26.9167 19.5911 26.7722 20.6919 26.5299L16.8017 22.6397C15.401 22.5711 14.076 21.9838 13.0843 20.9922C12.0927 20.0006 11.5055 18.6755 11.4368 17.2748ZM17.0765 7.08333C14.4486 7.08333 12.2953 7.65566 10.5004 8.49716L5.25162 3.24841L3.24846 5.25158L28.7485 30.7516L30.7516 28.7484L26.0795 24.0762C29.8166 21.3095 31.1497 17.5072 31.1695 17.4477L31.3183 17L31.1695 16.5523C31.1384 16.4574 27.89 7.08333 17.0765 7.08333ZM19.7767 17.7735C20.0416 16.8144 19.8164 15.7349 19.0797 14.9968C18.343 14.2587 17.2621 14.0349 16.303 14.2998L14.1667 12.1635C15.0423 11.6255 16.0489 11.3383 17.0765 11.3333C20.2017 11.3333 22.7432 13.8748 22.7432 17C22.739 18.0275 22.4512 19.034 21.9116 19.9084L19.7767 17.7735Z" fill="black" fill-opacity="0.37"/>
</svg>
